# File created by Blade
# Date/Time:  Fri Jan 16 19:18:57 2015
# Frame Rate: 120.000 fps
#------------------------------------------------------
:FULLY-SPECIFIED
:DEGREES
1003
root 19.821791 35.657155 -21.182986 -170.301054 -0.761704 -179.183637
Spine -18.974877 -0.145286 -0.134527
Head 9.619510 -2.020391 1.073194
LeftShoulder -11.699488 -30.595402 18.632888
LeftArm -1.297810 1.381883 -9.859976
LeftForeArm 18.061654 0.000000 -0.941797
LeftHand -2.461433 0.000000 0.457056
LeftHandThumb1 -26.253704 0.000000 33.147579
RightShoulder -10.356508 -3.079413 -9.147583
RightArm 0.477007 41.988022 11.314654
RightForeArm -35.124275 -0.000000 6.295819
RightHand -4.838636 -0.000000 -1.755024
RightHandThumb1 -24.326973 -0.000000 -32.862282
LeftUpLeg -2.801576 9.449168 -0.527088
LeftLeg -6.210051 -0.000000 0.000000
LeftFoot -18.818180 26.157824 -12.673738
LeftToeBase 26.219370 -0.000000 -0.000000
RightUpLeg -3.661677 -6.145298 0.542592
RightLeg -2.610499 -0.000000 0.000000
RightFoot -20.119429 -25.155168 15.074320
RightToeBase 23.836216 -0.000000 -0.000000
1004
root 19.826667 35.655605 -21.190392 -170.260748 -0.746930 -179.182130
Spine -19.024583 -0.132861 -0.140248
Head 9.560489 -2.013131 1.115274
LeftShoulder -11.734423 -30.584535 18.628356
LeftArm -1.437019 1.161803 -9.814729
LeftForeArm 17.800594 -0.000000 -0.922499
LeftHand -2.508128 0.000000 0.465062
LeftHandThumb1 -26.253704 0.000000 33.147579
RightShoulder -10.428778 -3.109445 -9.076106
RightArm 0.363464 41.954716 11.386055
RightForeArm -35.244021 -0.000000 6.279205
RightHand -4.577680 -0.000000 -1.934900
RightHandThumb1 -24.326973 -0.000000 -32.862282
LeftUpLeg -2.823096 9.453063 -0.524788
LeftLeg -6.221953 -0.000000 0.000000
LeftFoot -18.826232 26.172268 -12.676294
LeftToeBase 26.177723 -0.000000 -0.000000
RightUpLeg -3.672482 -6.158728 0.552554
RightLeg -2.646641 -0.000000 0.000000
RightFoot -20.106475 -25.161203 15.045532
RightToeBase 23.770615 -0.000000 -0.000000
1005
root 19.831326 35.654632 -21.198744 -170.217008 -0.740888 -179.186716
Spine -19.078852 -0.126504 -0.145611
Head 9.507349 -2.010328 1.154882
LeftShoulder -11.766012 -30.578310 18.606084
LeftArm -1.560656 1.024665 -9.750692
LeftForeArm 17.373746 -0.000000 -0.928231
LeftHand -2.650616 -0.000000 0.366670
LeftHandThumb1 -26.253704 0.000000 33.147579
RightShoulder -10.516190 -3.127596 -9.004566
RightArm 0.258541 41.940589 11.457375
RightForeArm -35.219212 -0.000000 6.366586
RightHand -4.615085 0.000000 -1.948651
RightHandThumb1 -24.326973 -0.000000 -32.862282
LeftUpLeg -2.843506 9.460194 -0.527989
LeftLeg -6.242289 -0.000000 0.000000
LeftFoot -18.824568 26.170441 -12.679729
LeftToeBase 26.221926 -0.000000 -0.000000
RightUpLeg -3.678946 -6.172401 0.560093
RightLeg -2.697483 -0.000000 0.000000
RightFoot -20.090683 -25.120331 15.018904
RightToeBase 23.841969 -0.000000 -0.000000
1006
root 19.835157 35.653591 -21.206132 -170.160970 -0.724857 -179.184669
Spine -19.147285 -0.126136 -0.135416
Head 9.456166 -1.973021 1.179469
LeftShoulder -11.824326 -30.595750 18.603617
LeftArm -1.710951 0.868897 -9.697096
LeftForeArm 17.203742 -0.000000 -0.886142
LeftHand -2.720936 -0.000000 0.340524
LeftHandThumb1 -26.253704 0.000000 33.147579
RightShoulder -10.582928 -3.190173 -8.930031
RightArm 0.132726 42.004612 11.533501
RightForeArm -35.285952 -0.000000 6.503571
RightHand -4.733591 -0.000000 -1.870703
RightHandThumb1 -24.326973 -0.000000 -32.862282
LeftUpLeg -2.876331 9.470689 -0.530826
LeftLeg -6.263993 -0.000000 0.000000
LeftFoot -18.829391 26.192922 -12.687375
LeftToeBase 26.202053 -0.000000 -0.000000
RightUpLeg -3.698207 -6.153573 0.564955
RightLeg -2.746531 -0.000000 0.000000
RightFoot -20.027139 -25.154628 14.915175
RightToeBase 23.733296 -0.000000 -0.000000
1007
root 19.839374 35.652269 -21.213986 -170.099214 -0.714017 -179.177038
Spine -19.227609 -0.136587 -0.116880
Head 9.412163 -1.939326 1.204585
LeftShoulder -11.893559 -30.592055 18.615909
LeftArm -1.844058 0.744154 -9.664267
LeftForeArm 16.931819 -0.000000 -0.898040
LeftHand -2.775834 -0.000000 0.402650
LeftHandThumb1 -26.253704 0.000000 33.147579
RightShoulder -10.637608 -3.197396 -8.892965
RightArm -0.008616 41.987915 11.634954
RightForeArm -35.225822 -0.000000 6.671009
RightHand -4.917801 0.000000 -1.780603
RightHandThumb1 -24.326973 -0.000000 -32.862282
LeftUpLeg -2.905104 9.465424 -0.524121
LeftLeg -6.301196 -0.000000 0.000000
LeftFoot -18.820945 26.218888 -12.674121
LeftToeBase 26.184091 -0.000000 -0.000000
RightUpLeg -3.721260 -6.148481 0.583659
RightLeg -2.802750 -0.000000 0.000000
RightFoot -19.999650 -25.130421 14.895521
RightToeBase 23.833803 -0.000000 -0.000000
1008
root 19.843395 35.650816 -21.221492 -170.037810 -0.694324 -179.168180
Spine -19.305527 -0.142159 -0.098214
Head 9.361081 -1.919248 1.226867
LeftShoulder -11.975117 -30.559795 18.626385
LeftArm -1.948715 0.616674 -9.623421
LeftForeArm 16.743776 -0.000000 -0.910857
LeftHand -2.832026 -0.000000 0.361821
LeftHandThumb1 -26.253704 0.000000 33.147579
RightShoulder -10.704925 -3.266154 -8.820824
RightArm -0.099844 42.049007 11.741896
RightForeArm -35.311794 -0.000000 6.794135
RightHand -4.876336 -0.000000 -1.791889
RightHandThumb1 -24.326973 -0.000000 -32.862282
LeftUpLeg -2.939357 9.481230 -0.520667
LeftLeg -6.327215 -0.000000 0.000000
LeftFoot -18.838192 26.242986 -12.678778
LeftToeBase 26.056243 -0.000000 -0.000000
RightUpLeg -3.739626 -6.106417 0.597496
RightLeg -2.864716 -0.000000 0.000000
RightFoot -19.977073 -25.127657 14.887509
RightToeBase 23.812761 -0.000000 -0.000000
